<svg width="100" height="100" viewBox="0 0 100 100" fill="none" xmlns="http://www.w3.org/2000/svg">
  <g clip-path="url(#clip0_2841_12)">
    <path d="M100 0H0V100H100V0Z" fill="#241E0A" />
    <path
      d="M32.5711 29H36.9711L50.8711 64H46.5711L42.5211 53.65H27.0211L22.9711 64H18.6711L32.5711 29ZM28.3711 50.15H41.1211L35.8211 36.55C35.6878 36.2167 35.5544 35.8667 35.4211 35.5C35.3211 35.2 35.2044 34.8833 35.0711 34.55C34.9378 34.2167 34.8378 33.9167 34.7711 33.65C34.6711 33.9167 34.5544 34.2167 34.4211 34.55C34.3211 34.8833 34.2211 35.2 34.1211 35.5C33.9878 35.8667 33.8544 36.2167 33.7211 36.55L28.3711 50.15ZM67.1465 48.8H59.2465V64H55.0465V29H68.9965C70.7298 29 72.2798 29.25 73.6465 29.75C75.0465 30.25 76.2298 30.95 77.1965 31.85C78.1965 32.7167 78.9465 33.7667 79.4465 35C79.9798 36.2 80.2465 37.5 80.2465 38.9C80.2465 41.3333 79.4798 43.4167 77.9465 45.15C76.4465 46.8833 74.3632 48.0167 71.6965 48.55L80.4465 64H75.7465L67.1465 48.8ZM59.2465 45.1H68.2465C70.7465 45.1 72.6632 44.5667 73.9965 43.5C75.3632 42.4333 76.0465 40.9 76.0465 38.9C76.0465 36.9 75.3632 35.3667 73.9965 34.3C72.6632 33.2333 70.7465 32.7 68.2465 32.7H59.2465V45.1Z"
      fill="#D7BE69" />
  </g>
  <defs>
    <clipPath id="clip0_2841_12">
      <rect width="100" height="100" rx="50" fill="white" />
    </clipPath>
  </defs>
</svg>
