<?xml version="1.0" standalone="no"?>
<!DOCTYPE svg PUBLIC "-//W3C//DTD SVG 20010904//EN" "http://www.w3.org/TR/2001/REC-SVG-20010904/DTD/svg10.dtd">
<svg version="1.0" xmlns="http://www.w3.org/2000/svg" width="300.000000pt" height="300.000000pt"
    viewBox="0 0 300.000000 300.000000" preserveAspectRatio="xMidYMid meet">
    <metadata>
        Created by potrace 1.10, written by Peter Selinger 2001-2011
    </metadata>
    <g transform="translate(0.000000,300.000000) scale(0.100000,-0.100000)" fill="#000000" stroke="none">
        <path d="M1383 2979 c-663 -50 -1210 -549 -1339 -1219 -24 -128 -25 -388 -1
-520 110 -600 570 -1073 1170 -1202 139 -29 406 -32 552 -4 300 56 565 195
780 411 312 312 464 717 434 1157 -43 631 -485 1170 -1094 1333 -155 41 -331
57 -502 44z m367 -45 c112 -18 299 -78 396 -127 430 -217 720 -620 795 -1102
17 -113 15 -330 -6 -450 -122 -725 -765 -1246 -1494 -1212 -278 13 -513 90
-742 242 -327 218 -554 565 -626 958 -23 127 -23 390 0 512 103 530 457 945
953 1118 237 83 466 102 724 61z" />
        <path d="M1306 2899 c-32 -5 -61 -11 -64 -13 -4 -4 20 -152 34 -212 5 -19 -2
-23 -62 -38 -37 -9 -82 -23 -100 -31 l-33 -13 -25 64 c-14 35 -26 68 -26 73 0
4 19 13 41 20 34 10 43 10 50 -1 6 -9 0 -17 -22 -26 -21 -9 -29 -18 -25 -28 3
-9 9 -27 12 -40 3 -13 11 -24 18 -24 24 0 131 39 130 47 -1 4 -11 50 -24 101
-18 73 -26 92 -40 92 -21 0 -156 -44 -221 -71 l-48 -21 25 -54 c13 -30 35 -78
49 -108 l24 -54 -72 -43 c-40 -23 -79 -48 -88 -55 -13 -12 -20 -7 -52 37 -53
70 -53 72 -8 102 34 23 40 24 45 10 4 -9 5 -17 4 -18 -2 -1 -13 -8 -25 -17
l-22 -14 25 -37 25 -38 38 23 c21 13 48 30 61 39 l23 15 -42 80 c-62 118 -52
111 -108 79 -71 -41 -193 -129 -193 -139 0 -5 28 -43 62 -85 34 -42 66 -81 71
-88 6 -8 -15 -35 -65 -86 l-74 -74 -56 47 -55 46 31 37 c25 30 34 35 44 25 9
-9 7 -17 -9 -34 l-21 -22 33 -31 34 -30 52 51 52 51 -72 78 -71 78 -25 -20
c-28 -22 -112 -115 -153 -168 l-26 -34 94 -69 c52 -38 94 -71 94 -73 0 -6 -91
-158 -101 -169 -8 -9 -129 42 -129 55 0 19 35 79 45 79 21 0 24 -12 9 -41 -14
-28 -14 -29 25 -48 l39 -20 36 61 c21 33 33 64 29 68 -4 4 -43 31 -86 59 -58
39 -81 50 -91 42 -17 -15 -126 -225 -126 -244 0 -10 37 -30 106 -57 81 -33
105 -47 101 -59 -25 -87 -52 -177 -53 -180 -2 -1 -35 2 -74 9 -58 10 -70 15
-66 28 2 10 8 32 11 50 5 24 11 32 22 28 8 -3 16 -6 19 -6 2 0 -1 -12 -6 -26
-6 -14 -10 -27 -10 -29 0 -4 69 -25 82 -25 4 0 14 25 22 55 9 30 19 61 22 69
4 10 -21 23 -100 49 l-104 35 -22 -82 c-26 -92 -46 -203 -39 -210 2 -2 42 -9
89 -15 47 -7 97 -14 112 -17 l28 -5 -3 -105 -2 -104 -41 0 c-23 0 -56 -3 -73
-6 l-31 -6 0 51 c0 39 4 51 15 51 10 0 15 -10 15 -30 0 -29 2 -30 45 -30 l45
0 0 65 c0 36 1 68 3 73 2 8 -203 25 -211 17 -10 -9 -3 -278 6 -287 6 -6 42 -5
88 1 44 6 94 11 113 13 l34 3 17 -85 c10 -47 21 -92 24 -100 5 -12 -9 -21 -61
-38 -37 -12 -70 -18 -74 -14 -11 11 -28 80 -21 86 12 12 32 5 32 -11 0 -36 13
-43 58 -31 34 8 42 14 37 27 -4 9 -11 40 -17 70 l-11 53 -46 -6 c-25 -3 -73
-11 -107 -17 l-61 -11 9 -51 c12 -67 67 -237 76 -237 4 0 54 18 111 40 57 23
105 39 106 38 2 -2 72 -137 92 -178 3 -5 -109 -80 -120 -80 -4 0 -16 19 -28
41 -16 33 -18 43 -8 50 8 5 18 0 28 -14 8 -12 16 -24 18 -27 6 -6 73 32 73 42
0 5 -13 35 -30 68 l-30 59 -92 -43 c-51 -24 -94 -49 -96 -55 -4 -13 86 -181
121 -225 l23 -29 92 67 c88 63 112 76 112 58 0 -4 29 -39 64 -78 l63 -69 -51
-53 -51 -53 -35 36 c-26 27 -31 38 -22 47 9 9 17 7 35 -10 l23 -22 31 33 31
32 -47 52 -48 51 -81 -65 c-45 -36 -82 -68 -82 -72 0 -11 147 -168 179 -191
l28 -19 69 81 c38 44 72 85 75 90 3 5 40 -15 82 -45 42 -31 82 -57 89 -59 8
-3 -1 -27 -26 -71 l-37 -67 -39 26 c-22 15 -40 30 -40 35 0 17 21 19 44 4 23
-15 24 -15 46 20 25 41 25 41 -46 89 l-49 33 -62 -83 c-35 -46 -63 -86 -63
-89 0 -12 234 -155 253 -155 3 0 26 47 53 105 36 78 53 105 64 101 53 -17 170
-62 175 -68 5 -5 -21 -128 -30 -136 -2 -2 -21 2 -44 9 -30 9 -41 18 -41 32 0
14 4 17 18 12 43 -18 49 -17 55 12 3 15 8 35 11 43 5 11 -10 21 -59 39 -37 13
-68 22 -70 20 -7 -7 -85 -192 -82 -195 7 -7 215 -73 249 -78 42 -8 39 -14 64
119 9 50 20 93 24 98 3 4 52 2 108 -4 l102 -12 0 -67 c0 -37 -2 -69 -4 -71 -3
-2 -25 -3 -50 -1 -52 5 -67 32 -17 32 26 0 29 4 34 42 3 24 5 43 4 44 -1 1
-34 5 -73 9 l-72 7 -12 -89 c-6 -48 -14 -95 -16 -104 -6 -23 18 -28 170 -36
l129 -6 -6 126 -7 127 38 0 c20 1 67 7 104 14 l67 13 17 -69 c9 -38 15 -70 13
-72 -2 -2 -23 -8 -46 -13 -34 -9 -43 -8 -47 4 -9 21 -8 21 22 25 24 3 27 7 26
36 -3 59 -5 60 -77 48 -36 -6 -68 -13 -70 -16 -3 -3 0 -50 7 -105 l11 -100 40
2 c45 3 227 42 245 53 8 5 1 38 -24 115 -20 60 -34 111 -31 113 5 5 155 72
175 78 10 3 26 -15 48 -57 18 -34 32 -63 30 -64 -2 -1 -22 -12 -45 -23 -35
-18 -42 -19 -47 -6 -4 9 3 19 19 26 14 6 25 15 25 19 0 15 -34 79 -40 77 -83
-36 -120 -55 -120 -63 0 -5 16 -51 36 -102 l35 -92 52 20 c54 21 168 81 200
104 17 12 14 20 -47 113 l-64 100 51 36 c29 19 66 49 83 65 l31 29 54 -54 53
-54 -40 -34 c-33 -29 -40 -32 -48 -18 -6 11 -3 20 13 33 l22 18 -27 35 c-16
20 -33 32 -39 27 -5 -4 -31 -24 -57 -45 l-47 -38 40 -57 c22 -32 51 -71 64
-86 l23 -29 53 41 c30 22 81 66 114 97 l60 56 -88 82 -88 83 49 62 c28 34 57
72 65 84 l15 21 59 -37 c32 -21 59 -39 61 -40 2 -2 -9 -22 -24 -44 -21 -32
-30 -39 -40 -30 -11 9 -10 15 3 36 16 24 15 25 -13 48 -16 14 -33 24 -39 24
-11 0 -85 -93 -85 -106 0 -5 36 -39 80 -76 l80 -68 62 85 c35 47 73 103 85
125 l23 39 -103 58 c-56 31 -103 58 -104 58 -1 1 11 29 26 61 16 33 34 76 41
96 l13 35 68 -20 c38 -11 69 -25 69 -32 0 -6 -7 -28 -15 -47 -11 -26 -19 -35
-31 -30 -8 3 -13 12 -10 19 3 8 9 21 12 28 4 10 -6 20 -31 30 -21 9 -40 16
-44 16 -3 0 -18 -30 -33 -66 l-26 -65 89 -44 c49 -25 93 -45 98 -45 15 0 118
266 107 277 -2 2 -51 17 -110 32 -58 15 -108 29 -110 32 -3 2 3 49 12 104 l17
100 74 -3 c70 -3 73 -4 67 -25 -3 -12 -6 -34 -6 -49 0 -20 -5 -28 -18 -28 -15
0 -17 6 -14 34 4 34 4 34 -41 37 l-45 4 -7 -45 c-3 -25 -8 -57 -11 -71 -5 -26
-3 -26 97 -48 56 -12 104 -19 106 -17 11 11 23 90 29 189 l7 107 -121 0 -122
0 -1 58 c0 31 -4 78 -8 104 l-8 47 56 11 c31 6 63 13 72 16 16 4 29 -30 29
-77 0 -31 -28 -21 -35 12 -5 21 -11 29 -22 25 -8 -3 -28 -6 -43 -6 l-29 0 6
-67 c3 -38 9 -71 12 -76 4 -4 54 -4 110 -1 l103 7 -6 76 c-6 67 -32 210 -39
218 -2 1 -55 -10 -117 -26 -63 -16 -115 -28 -115 -27 0 0 -15 45 -33 99 -19
54 -32 99 -30 100 51 29 123 56 128 50 5 -4 15 -25 23 -45 14 -33 14 -37 0
-42 -9 -4 -17 -5 -17 -4 -1 2 -7 15 -14 30 l-12 28 -37 -17 c-21 -10 -39 -18
-40 -18 -2 -1 37 -119 44 -133 2 -5 187 50 197 59 10 9 -19 97 -70 207 l-33
73 -106 -56 c-59 -32 -108 -56 -109 -54 -2 2 -16 24 -31 49 -15 25 -41 61 -57
82 l-28 36 53 46 c30 25 57 46 60 46 3 0 18 -16 33 -35 22 -29 25 -38 15 -48
-10 -9 -16 -7 -28 11 -19 28 -31 27 -66 -2 l-29 -23 37 -57 c21 -31 42 -56 46
-56 8 0 156 86 173 101 13 11 -151 239 -172 239 -4 0 -46 -35 -92 -79 l-85
-78 -77 72 -77 71 40 57 c22 31 44 57 47 57 4 -1 23 -14 42 -30 26 -23 31 -33
22 -42 -9 -9 -16 -8 -30 5 -25 23 -33 21 -62 -15 l-24 -31 54 -49 54 -48 76
75 75 76 -53 50 c-56 51 -181 144 -186 138 -1 -2 -31 -47 -64 -100 l-62 -96
-94 49 -95 48 26 63 c14 34 27 64 28 66 2 2 24 -5 49 -14 31 -12 43 -21 39
-32 -5 -14 -18 -14 -54 1 -12 6 -20 -3 -33 -35 -9 -23 -16 -42 -14 -43 2 0 30
-15 64 -32 l61 -32 51 90 c29 50 49 94 46 99 -14 24 -250 126 -262 114 -4 -3
-23 -52 -43 -108 -41 -115 -28 -109 -157 -81 l-82 19 6 65 c4 36 9 68 13 72 3
4 25 4 49 1 33 -4 42 -10 42 -25 0 -16 -5 -18 -35 -12 -32 6 -35 4 -35 -17 0
-13 -3 -33 -6 -45 -5 -19 1 -22 58 -35 35 -8 67 -14 72 -14 14 0 66 199 54
206 -13 9 -156 36 -229 44 l-56 7 -6 -54 c-4 -29 -7 -76 -7 -105 0 -84 2 -83
-115 -83 l-103 0 -7 66 c-4 36 -4 68 -1 71 3 4 25 7 47 7 53 1 64 -20 15 -30
-36 -6 -36 -6 -30 -48 4 -22 8 -43 10 -45 1 -2 35 0 73 4 l71 7 0 104 0 104
-87 -1 c-49 -1 -115 -5 -147 -10z m204 -99 l0 -80 -44 0 c-28 0 -46 5 -49 14
-8 19 1 26 36 26 22 0 28 4 23 16 -3 9 -6 29 -6 46 l0 30 -77 -7 c-43 -4 -79
-8 -79 -9 -3 -2 26 -199 28 -200 2 -1 60 0 130 2 l126 4 7 76 c3 42 8 96 11
120 5 42 6 43 37 38 122 -19 177 -30 187 -36 9 -5 7 -25 -8 -76 l-19 -69 -44
3 c-50 3 -51 4 -43 25 4 12 14 15 34 10 26 -5 30 -2 35 23 4 16 9 36 11 45 4
13 -10 19 -71 29 -41 7 -77 11 -80 9 -8 -8 -27 -180 -21 -194 3 -9 18 -15 35
-15 16 0 70 -11 121 -24 l91 -24 8 22 c5 11 21 61 37 109 27 85 30 88 55 83
32 -6 177 -74 184 -87 4 -5 -11 -38 -32 -73 l-38 -64 -38 20 c-52 26 -40 56
14 34 11 -5 20 4 32 29 9 20 17 38 17 41 0 11 -133 65 -140 57 -8 -9 -70 -164
-70 -175 0 -4 37 -25 83 -47 45 -21 96 -48 112 -58 l30 -20 64 96 c35 53 65
98 67 100 5 5 144 -101 169 -129 19 -21 18 -21 -36 -76 l-54 -54 -35 29 c-28
23 -32 32 -23 42 10 10 17 9 33 -6 20 -19 21 -18 52 12 17 17 28 35 25 40 -9
15 -117 96 -121 92 -2 -2 -29 -40 -61 -83 l-58 -79 29 -21 c16 -11 59 -49 95
-83 36 -35 69 -63 72 -63 4 0 44 34 88 75 45 41 85 75 90 75 10 0 134 -167
134 -180 0 -6 -29 -28 -64 -50 l-65 -39 -24 35 c-22 33 -23 37 -8 52 9 9 16
12 16 7 0 -6 7 -18 15 -29 13 -18 15 -18 50 4 20 12 35 26 33 31 -10 28 -85
118 -96 114 -7 -2 -43 -30 -82 -62 -65 -54 -68 -59 -54 -78 8 -11 40 -58 71
-105 31 -47 57 -86 59 -88 1 -2 48 22 105 52 56 31 103 55 104 54 10 -11 52
-103 71 -154 l24 -63 -66 -21 c-36 -11 -71 -20 -78 -20 -14 0 -40 66 -31 80
11 17 24 11 31 -15 3 -14 12 -25 19 -25 22 0 75 22 75 31 0 9 -49 130 -55 137
-2 3 -175 -75 -182 -82 -2 -2 10 -36 26 -77 16 -41 35 -96 42 -122 10 -43 14
-48 35 -43 95 24 206 47 209 44 6 -6 35 -176 35 -204 0 -19 -5 -24 -27 -24
-16 0 -51 -3 -79 -6 l-52 -7 -3 46 c-3 37 -1 47 13 51 14 3 18 -2 18 -25 0
-28 2 -29 46 -29 l47 0 -7 72 c-4 40 -10 76 -14 80 -5 5 -51 0 -103 -10 -90
-17 -94 -19 -92 -42 2 -14 6 -72 10 -130 l8 -105 119 -3 119 -3 -6 -87 c-4
-48 -9 -101 -13 -118 l-6 -30 -79 15 c-60 11 -78 18 -74 29 3 7 5 27 5 43 0
23 4 29 21 29 17 0 20 -4 14 -29 -5 -24 -2 -29 17 -35 41 -11 67 -7 72 12 10
38 17 130 9 135 -4 3 -51 7 -103 8 l-94 3 -13 -92 c-7 -51 -16 -108 -22 -127
-8 -28 -6 -35 7 -39 10 -3 59 -17 111 -30 51 -14 96 -27 98 -30 9 -9 -66 -216
-78 -216 -14 0 -139 62 -138 68 0 4 8 24 17 44 13 29 20 35 31 28 12 -7 13
-13 3 -34 -12 -27 -7 -33 51 -55 24 -9 26 -7 51 61 15 39 23 75 19 79 -9 8
-184 62 -188 57 -1 -2 -12 -29 -24 -61 -11 -31 -34 -83 -50 -115 l-29 -58 104
-58 c120 -66 117 -50 26 -178 l-55 -77 -36 29 c-20 16 -48 40 -63 52 l-26 23
27 33 c20 23 33 31 45 26 16 -6 15 -9 -5 -30 l-21 -23 28 -25 c16 -14 34 -26
41 -26 12 0 99 118 91 124 -1 2 -41 27 -87 56 -67 41 -86 49 -92 38 -9 -17
-86 -119 -123 -165 l-26 -31 85 -78 c47 -42 85 -80 85 -84 0 -11 -163 -150
-175 -150 -5 0 -21 17 -35 37 -66 99 -64 85 -23 117 28 23 37 26 44 15 5 -9 1
-21 -12 -35 l-21 -22 23 -31 c12 -17 28 -31 33 -31 6 0 36 23 66 50 l55 49
-72 72 -71 72 -74 -59 c-41 -32 -88 -68 -104 -80 l-28 -21 62 -97 c34 -53 62
-99 62 -101 0 -6 -197 -105 -207 -105 -5 0 -19 30 -33 67 -14 37 -26 70 -28
74 -1 3 16 13 40 22 33 13 44 14 50 5 4 -8 -3 -18 -21 -28 l-28 -15 19 -42 19
-43 69 35 c39 19 70 37 70 39 0 3 -89 166 -96 174 -1 2 -28 -10 -60 -26 -33
-16 -87 -39 -120 -52 l-61 -22 34 -106 c19 -59 37 -110 39 -113 4 -7 -115 -37
-203 -53 -29 -5 -33 -3 -34 17 0 12 -4 48 -8 79 l-7 57 38 6 c59 10 85 -17 27
-29 -30 -6 -31 -7 -24 -48 4 -24 8 -44 10 -46 2 -3 147 27 152 31 3 3 -45 189
-50 194 -2 1 -45 -5 -97 -13 -52 -9 -110 -18 -128 -20 l-33 -5 7 -120 7 -119
-45 0 c-25 0 -78 3 -119 6 l-74 7 10 72 c5 41 13 76 17 80 4 4 25 4 47 0 52
-9 57 -35 6 -35 -35 0 -35 0 -35 -44 l0 -44 76 -4 c42 -2 78 0 80 4 3 4 2 49
-2 101 l-7 94 -72 6 c-40 4 -97 9 -127 13 l-55 6 -23 -116 c-19 -96 -26 -116
-39 -112 -77 21 -188 57 -198 64 -10 6 -6 24 16 76 15 37 30 68 32 68 2 1 21
-4 42 -11 48 -16 52 -45 3 -36 -30 6 -34 4 -40 -18 -3 -14 -9 -32 -12 -41 -7
-17 5 -23 93 -49 l51 -15 22 91 c13 51 23 95 24 100 0 4 -39 21 -87 37 -48 17
-102 37 -119 46 -36 19 -30 26 -89 -102 -35 -75 -48 -93 -62 -90 -36 9 -187
111 -182 123 2 7 23 38 45 67 l41 55 39 -27 c28 -20 35 -30 28 -40 -9 -10 -16
-9 -35 4 -14 8 -26 14 -27 12 -24 -33 -46 -67 -46 -71 0 -7 115 -77 127 -77 9
0 107 170 101 174 -2 2 -28 17 -58 35 -30 19 -73 48 -95 65 -22 18 -45 35 -51
39 -6 3 -44 -34 -85 -83 -41 -50 -77 -90 -80 -90 -11 0 -160 162 -157 170 2 4
28 28 59 53 l56 46 32 -33 c24 -25 28 -35 19 -44 -9 -9 -17 -7 -35 10 l-24 22
-32 -32 -31 -32 54 -55 54 -55 49 48 c27 26 58 60 69 75 l20 28 -53 57 c-30
32 -68 75 -85 97 l-30 39 -88 -63 c-49 -34 -94 -65 -100 -67 -11 -4 -61 75
-109 171 l-15 29 72 32 71 31 21 -36 c15 -26 18 -40 10 -49 -8 -11 -12 -11
-23 4 -7 9 -14 22 -16 28 -4 11 -87 -21 -87 -33 0 -5 67 -121 76 -130 2 -3
150 86 172 105 2 1 -9 22 -24 46 -15 23 -42 75 -60 115 l-33 71 -92 -35 c-51
-19 -101 -39 -111 -44 -15 -8 -20 1 -41 68 -14 43 -28 96 -31 119 l-7 40 73
12 c40 6 76 8 80 4 3 -4 10 -24 13 -44 6 -31 4 -38 -9 -38 -9 0 -19 12 -22 26
-6 24 -10 26 -47 20 -23 -4 -43 -9 -45 -11 -6 -5 29 -144 37 -149 6 -4 180 50
189 58 2 3 -5 40 -16 83 -11 43 -23 99 -27 126 -3 26 -7 47 -8 47 -1 0 -54 -7
-117 -14 -63 -8 -116 -13 -118 -11 -6 6 -7 223 -1 229 3 3 39 3 80 0 l74 -7
-4 -43 c-4 -52 -31 -64 -31 -14 0 29 -2 30 -45 30 l-45 0 0 -79 0 -79 98 5
c53 3 99 7 101 9 2 2 5 61 7 132 l3 129 -92 12 c-148 19 -140 15 -132 64 9 50
41 177 47 183 5 4 129 -35 140 -45 4 -3 2 -25 -3 -48 -8 -30 -15 -40 -26 -36
-10 4 -13 14 -9 34 5 26 2 29 -35 41 -33 9 -42 9 -49 -2 -11 -18 -33 -131 -26
-137 2 -3 38 -11 78 -19 40 -7 83 -16 95 -19 19 -4 23 1 33 51 7 31 23 88 36
127 13 39 23 71 21 72 -1 1 -50 21 -109 44 l-107 43 15 36 c13 31 80 159 90
171 4 4 122 -68 129 -79 9 -15 -35 -79 -51 -73 -18 7 -18 13 1 40 14 20 13 22
-21 42 -19 12 -38 21 -42 21 -9 0 -75 -131 -69 -136 7 -7 168 -84 176 -84 4 0
17 21 30 48 12 26 41 75 63 110 23 35 37 66 32 71 -5 4 -48 36 -96 71 l-88 64
22 25 c13 15 49 54 82 88 l59 61 53 -56 52 -57 -31 -32 c-24 -25 -33 -30 -44
-21 -11 9 -10 15 7 33 l20 21 -33 32 -34 33 -51 -60 -52 -59 68 -54 c37 -30
73 -58 79 -62 8 -4 46 26 103 83 l91 90 -70 88 c-39 48 -71 91 -71 94 0 14
187 137 194 128 1 -2 19 -33 39 -69 l35 -65 -40 -24 c-32 -18 -42 -20 -49 -10
-5 8 0 18 14 28 12 8 24 16 26 17 5 4 -39 74 -47 74 -10 0 -122 -75 -122 -82
0 -4 26 -43 58 -86 l57 -79 50 34 c28 19 77 48 110 65 33 17 61 31 63 33 1 1
-21 50 -48 110 -28 59 -49 109 -48 110 14 11 218 79 222 73 4 -4 36 -135 36
-146 0 -5 -12 -12 -27 -15 -16 -3 -36 -9 -45 -12 -14 -6 -18 -2 -18 14 0 12 6
21 13 21 32 1 39 16 26 59 -14 46 -8 45 -106 9 -29 -11 -53 -21 -53 -24 0 -21
75 -184 84 -182 6 2 43 13 81 25 39 12 89 27 113 33 49 13 48 8 22 140 -10 52
-15 98 -12 102 9 8 65 14 160 16 l72 2 0 -80z" />
        <path d="M1317 2585 c-222 -42 -412 -141 -574 -298 -173 -168 -289 -393 -323
-626 -18 -118 -8 -324 20 -431 113 -430 463 -751 892 -820 113 -18 341 -8 443
20 309 84 567 294 709 577 173 345 149 762 -62 1088 -150 232 -383 401 -647
470 -128 34 -338 43 -458 20z m433 -43 c200 -53 369 -148 506 -286 135 -136
231 -303 281 -491 23 -88 26 -120 27 -265 0 -142 -3 -177 -23 -255 -53 -205
-152 -376 -298 -515 -210 -203 -450 -301 -733 -302 -142 0 -227 13 -352 56
-369 126 -646 457 -708 849 -19 119 -8 329 24 445 52 189 140 338 280 478 164
164 338 255 570 300 100 19 328 11 426 -14z" />
        <path d="M1080 2210 c0 -46 24 -56 34 -15 5 20 13 25 36 25 l30 0 0 -134 c0
-126 -1 -135 -20 -141 -40 -13 -18 -25 45 -25 63 0 85 12 45 25 -19 6 -20 15
-20 141 l0 135 32 -3 c25 -2 34 -9 38 -27 10 -45 30 -36 30 13 l0 46 -125 0
-125 0 0 -40z" />
        <path d="M1350 2240 c0 -5 9 -14 20 -20 18 -10 20 -21 20 -140 0 -120 -1 -129
-20 -135 -39 -12 -19 -25 40 -25 59 0 79 13 40 25 -17 5 -20 15 -20 64 l0 57
69 -4 c62 -4 70 -2 84 19 9 12 20 19 24 15 4 -4 0 -13 -10 -20 -13 -10 -17
-27 -17 -69 0 -39 -4 -56 -15 -61 -34 -13 -12 -26 45 -26 59 0 79 13 40 25
-19 6 -20 15 -20 140 0 124 1 133 20 138 43 11 19 27 -40 27 -57 0 -79 -13
-45 -26 11 -5 15 -22 15 -65 l0 -59 -75 0 -75 0 0 59 c0 50 3 59 20 64 43 11
19 27 -40 27 -33 0 -60 -4 -60 -10z" />
        <path d="M1700 2239 c0 -6 9 -13 20 -16 19 -5 20 -14 20 -138 0 -125 -1 -134
-20 -140 -48 -15 -12 -25 90 -25 l110 0 0 40 c0 44 -16 54 -26 15 -6 -23 -11
-25 -61 -25 l-54 0 3 58 3 57 37 3 c29 3 38 -1 43 -17 12 -39 25 -21 25 34 0
55 -13 73 -25 35 -5 -15 -15 -20 -42 -20 -22 0 -41 -7 -49 -17 -12 -16 -13
-16 -14 -1 0 9 5 18 12 20 7 3 11 26 10 62 l-1 57 47 -7 c56 -8 62 -11 62 -30
0 -8 7 -14 15 -14 11 0 15 11 15 40 l0 40 -110 0 c-73 0 -110 -4 -110 -11z" />
        <path d="M1207 1713 c-2 -5 -27 -92 -56 -194 -47 -163 -56 -188 -78 -198 -14
-7 -23 -18 -21 -27 2 -14 18 -17 83 -18 68 -1 80 1 83 16 2 11 -6 22 -21 29
-22 10 -24 14 -14 45 10 34 11 34 68 34 56 0 58 -1 64 -32 6 -25 3 -34 -15
-48 -43 -33 -21 -45 81 -44 80 0 94 3 97 17 2 10 -6 21 -21 28 -22 10 -32 37
-83 205 l-58 194 -52 0 c-29 0 -55 -3 -57 -7z m63 -14 c0 -5 3 -8 8 -6 4 3 13
-1 20 -9 7 -8 10 -14 6 -14 -3 0 -2 -6 4 -13 6 -7 13 -27 17 -44 3 -18 10 -45
16 -60 6 -15 10 -28 9 -28 -1 0 1 -7 4 -15 12 -34 49 -156 50 -165 0 -5 10
-17 21 -26 19 -17 18 -17 -38 -17 -56 1 -78 10 -57 23 25 16 -6 95 -38 95 -13
0 -12 3 3 20 18 19 18 23 2 74 -9 29 -17 65 -17 80 0 15 -4 25 -9 21 -5 -3
-13 4 -16 16 -4 11 -8 19 -10 17 -2 -2 7 -44 21 -93 13 -50 24 -93 24 -97 0
-5 -18 -8 -40 -8 -46 0 -45 -3 -25 70 17 64 19 100 5 100 -5 0 -10 -10 -10
-21 0 -30 -22 -103 -33 -110 -5 -4 -4 -10 2 -13 6 -4 9 -12 6 -17 -4 -5 1 -12
9 -15 9 -3 16 -10 16 -16 0 -5 -4 -7 -8 -4 -13 8 -48 -37 -54 -68 -4 -18 -1
-29 8 -33 8 -3 12 -9 9 -13 -6 -10 -77 -11 -73 -1 5 9 27 57 39 89 7 15 13 38
14 52 1 14 5 32 10 40 5 8 10 25 11 39 2 13 7 27 11 30 4 3 9 19 10 35 1 16 8
33 15 37 7 4 9 11 5 15 -9 10 24 64 40 64 7 0 13 -5 13 -11z" />
        <path d="M782 1693 c2 -10 13 -22 26 -28 21 -10 22 -14 22 -171 l0 -161 -26
-12 c-16 -7 -24 -18 -22 -28 3 -15 16 -18 98 -17 77 0 95 3 98 15 1 9 -8 21
-23 27 -23 11 -25 17 -25 77 0 65 0 65 28 65 21 0 32 -7 40 -25 7 -15 20 -25
32 -25 18 0 20 6 20 75 0 69 -2 75 -20 75 -12 0 -25 -10 -32 -25 -8 -18 -19
-25 -40 -25 l-28 0 0 73 0 72 44 -3 c39 -3 46 -8 55 -34 7 -20 16 -29 28 -26
14 3 19 15 21 61 l3 57 -151 0 c-139 0 -151 -1 -148 -17z m148 -12 c0 -20 -13
-41 -21 -35 -5 3 -9 0 -9 -5 0 -6 4 -11 8 -11 5 0 6 -20 2 -45 -5 -32 -3 -51
7 -65 11 -15 13 -32 7 -63 -11 -60 -12 -109 -2 -129 9 -19 -8 -28 -52 -28 -34
0 -47 15 -24 28 10 6 12 12 6 16 -6 3 -7 19 -2 41 5 20 4 33 -1 29 -5 -3 -9 4
-9 16 0 12 4 19 8 16 5 -3 8 35 8 84 0 49 -3 87 -6 85 -3 -2 -7 14 -7 36 l-2
39 45 0 c24 0 44 -4 44 -9z m126 -6 c3 -8 3 -19 -1 -24 -9 -15 -44 9 -38 26 7
17 32 17 39 -2z m-19 -190 c-1 -30 -4 -35 -21 -33 -24 4 -33 33 -16 53 22 26
38 17 37 -20z" />
        <path d="M1492 1693 c2 -10 13 -22 26 -28 21 -10 22 -14 22 -171 l0 -161 -26
-12 c-16 -7 -24 -18 -22 -29 3 -15 16 -17 112 -15 125 2 182 18 220 64 53 63
74 219 38 289 -31 62 -68 75 -230 78 -135 4 -144 3 -140 -15z m306 -28 c35
-27 52 -51 53 -74 1 -14 2 -38 2 -53 1 -16 5 -28 9 -28 5 0 5 -8 0 -17 -5 -10
-12 -35 -16 -55 -4 -21 -11 -38 -16 -38 -6 0 -9 -3 -8 -7 3 -18 -16 -43 -48
-62 -27 -16 -34 -17 -34 -6 0 8 4 15 9 15 5 0 19 16 31 37 17 29 18 38 8 44
-11 7 -11 9 0 9 10 0 13 23 11 99 -1 55 -5 98 -9 96 -3 -2 -18 9 -33 25 -18
19 -35 27 -52 25 -19 -2 -23 1 -15 10 8 9 20 10 53 1 23 -6 48 -15 55 -21z
m-163 15 c3 -5 3 -16 -1 -22 -5 -7 -9 -58 -11 -113 -1 -55 -3 -118 -4 -140 -1
-22 3 -50 9 -62 20 -37 14 -43 -39 -43 -48 0 -50 1 -42 23 10 29 10 319 0 334
-5 7 -6 17 -2 23 8 13 82 13 90 0z m114 -49 c24 -24 36 -95 27 -168 -11 -94
-44 -133 -112 -133 l-24 0 0 160 0 160 45 0 c31 0 51 -6 64 -19z" />
        <path d="M1912 1693 c2 -10 13 -22 26 -28 21 -10 22 -14 22 -171 l0 -161 -26
-12 c-15 -7 -24 -18 -22 -28 3 -14 22 -16 156 -17 85 -1 156 3 159 7 3 4 2 30
-2 57 -6 41 -11 50 -26 50 -13 0 -24 -10 -30 -30 -10 -28 -15 -30 -60 -30
l-49 0 0 65 0 65 34 0 c25 0 35 -5 39 -20 3 -12 14 -20 26 -20 19 0 21 6 21
75 0 59 -3 75 -15 75 -8 0 -22 -11 -31 -25 -11 -17 -25 -25 -45 -25 l-29 0 0
68 0 67 48 -3 c43 -3 49 -7 60 -34 7 -20 16 -29 29 -26 14 3 19 15 21 61 l3
57 -156 0 c-144 0 -156 -1 -153 -17z m148 -17 c0 -8 -4 -18 -10 -21 -5 -3 -10
-15 -10 -26 0 -14 -4 -18 -12 -13 -9 5 -9 3 1 -9 7 -9 11 -28 9 -42 -3 -15 2
-32 12 -43 12 -13 15 -24 9 -40 -5 -12 -12 -22 -16 -22 -5 0 -8 -29 -8 -65 0
-60 2 -66 22 -71 39 -10 14 -24 -43 -24 -54 0 -64 6 -43 27 12 12 21 268 10
288 -3 5 -6 16 -7 25 -1 8 -5 23 -9 33 -6 15 -1 17 44 17 38 0 51 -4 51 -14z
m145 -7 c11 -34 -9 -44 -39 -18 -29 25 -26 39 9 39 15 0 26 -7 30 -21z m-47
-179 c-1 -32 -18 -39 -38 -15 -10 12 -10 18 0 30 21 25 39 18 38 -15z m42
-165 c0 -18 -5 -25 -20 -25 -24 0 -25 8 -3 32 21 23 23 23 23 -7z" />
        <path d="M555 1582 c-38 -38 -71 -74 -73 -82 -2 -8 -11 -19 -20 -27 -9 -7 -13
-13 -8 -13 5 0 17 7 26 15 15 14 23 14 76 0 78 -20 194 -21 194 0 0 17 -19 22
-121 29 -42 3 -83 8 -92 12 -21 7 -12 24 11 24 21 0 116 93 106 103 -15 15
-31 4 -99 -61z" />
        <path d="M2360 1639 c0 -21 71 -99 89 -99 10 0 24 -6 30 -14 9 -11 1 -14 -41
-20 -29 -3 -78 -6 -108 -6 -59 0 -87 -11 -76 -29 10 -16 131 -14 196 3 49 13
57 13 73 -1 9 -9 20 -13 24 -10 3 4 1 7 -5 7 -6 0 -14 10 -17 23 -4 12 -37 52
-73 90 -63 63 -92 81 -92 56z" />
        <path d="M1223 1079 c-18 -5 -45 -26 -60 -46 -34 -45 -44 -147 -20 -206 44
-104 206 -102 259 3 37 73 14 204 -41 238 -29 17 -99 23 -138 11z m99 -40 c44
-23 63 -135 34 -203 -29 -69 -127 -70 -160 -2 -29 61 -17 174 21 204 21 15 77
16 105 1z" />
        <path d="M1550 1072 c-68 -34 -102 -125 -79 -215 16 -66 55 -99 121 -104 66
-5 114 18 143 67 29 50 29 167 -1 207 -25 34 -79 63 -119 63 -16 0 -46 -8 -65
-18z m125 -48 c42 -45 45 -168 5 -212 -43 -46 -126 -32 -148 25 -28 76 -18
170 21 198 35 24 94 19 122 -11z" />
        <path d="M840 1071 c0 -5 7 -11 15 -15 12 -4 15 -30 15 -141 0 -113 -2 -135
-15 -135 -8 0 -15 -7 -15 -15 0 -12 13 -15 60 -15 61 0 76 11 40 30 -16 9 -20
21 -20 65 0 30 -4 55 -10 55 -5 0 -10 8 -10 18 1 16 2 16 13 1 7 -9 21 -18 32
-20 13 -3 32 -28 55 -73 37 -74 46 -82 85 -72 28 7 35 39 8 34 -24 -4 -88 121
-67 129 22 8 44 57 44 97 0 54 -26 66 -137 66 -51 0 -93 -4 -93 -9z m168 -33
c17 -17 15 -74 -4 -92 -8 -9 -31 -16 -50 -16 l-34 0 0 60 0 60 38 0 c21 0 43
-5 50 -12z" />
        <path d="M1800 1071 c0 -5 9 -13 20 -16 19 -6 20 -13 16 -63 -3 -31 -8 -91
-12 -134 -5 -64 -9 -77 -25 -81 -42 -11 -17 -27 42 -27 44 0 60 3 56 13 -2 6
-13 12 -25 12 -11 0 -25 5 -29 9 -4 5 -2 6 5 2 9 -5 12 6 13 46 0 29 4 78 9
108 4 31 4 59 -1 65 -6 5 -9 4 -9 -5 0 -7 -3 -11 -6 -8 -9 9 16 49 26 43 5 -3
8 -23 6 -43 -5 -45 62 -227 84 -227 8 0 30 45 55 113 l42 114 6 -99 c6 -90 5
-99 -13 -112 -33 -23 -23 -31 40 -31 44 0 60 4 60 14 0 7 -9 16 -20 19 -18 4
-20 14 -20 75 0 38 -3 96 -6 129 -6 56 -5 61 15 68 36 11 23 25 -23 25 l-44 0
-41 -112 c-23 -62 -43 -121 -45 -130 -1 -10 -6 -21 -10 -25 -5 -4 -6 5 -3 22
3 20 -8 63 -36 137 l-40 108 -44 0 c-23 0 -43 -4 -43 -9z m297 -26 c0 -8 -5
-11 -10 -8 -6 4 -7 -5 -3 -23 7 -28 6 -28 -10 -12 -17 17 -17 18 1 38 22 24
22 24 22 5z" />
        <path d="M1096 623 c-10 -10 -7 -83 3 -83 5 0 12 10 14 23 l4 22 2 -22 c2 -33
16 -28 29 10 l11 32 -5 -32 c-3 -20 -1 -33 5 -33 14 0 14 77 0 85 -6 4 -13 -2
-16 -14 -6 -24 -23 -29 -23 -7 0 17 -14 28 -24 19z" />
        <path d="M1300 610 c0 -19 3 -21 12 -12 9 9 9 15 0 24 -9 9 -12 7 -12 -12z" />
        <path d="M1428 619 c-37 -21 -12 -85 29 -77 24 4 31 48 8 48 -12 0 -15 -5 -11
-16 4 -10 1 -14 -6 -12 -7 3 -13 13 -13 24 0 14 6 18 23 17 25 -3 30 12 6 21
-19 7 -15 8 -36 -5z" />
        <path d="M1758 623 c-10 -19 -8 -72 1 -78 7 -4 11 10 11 39 0 43 -4 56 -12 39z" />
        <path d="M1191 601 c-7 -5 -11 -19 -9 -32 4 -31 40 -33 44 -3 4 26 -16 46 -35
35z" />
        <path d="M1333 598 c-14 -24 -13 -49 3 -55 24 -9 44 18 33 45 -9 24 -24 29
-36 10z" />
        <path d="M1508 602 c-19 -4 -25 -46 -8 -57 6 -3 10 2 10 12 0 11 5 24 12 31
14 14 9 20 -14 14z" />
        <path d="M1539 594 c-25 -30 16 -67 44 -40 13 14 16 14 21 1 7 -20 33 -19 45
3 10 16 10 16 11 0 0 -29 20 -20 21 10 1 20 2 22 6 7 8 -34 23 -41 23 -11 0
15 4 25 10 21 5 -3 7 -12 4 -19 -3 -8 0 -17 6 -21 8 -5 10 3 8 26 -3 32 -5 34
-37 32 -19 -1 -38 -8 -42 -15 -6 -8 -9 -9 -9 -2 0 19 -28 24 -44 9 -12 -13
-16 -12 -26 0 -16 19 -24 19 -41 -1z m31 -19 c0 -8 -4 -15 -10 -15 -5 0 -10 7
-10 15 0 8 5 15 10 15 6 0 10 -7 10 -15z m64 -6 c-3 -5 -10 -7 -15 -3 -5 3 -7
10 -3 15 3 5 10 7 15 3 5 -3 7 -10 3 -15z" />
        <path d="M1798 602 c-19 -4 -25 -46 -8 -57 6 -4 10 5 10 19 0 14 5 26 10 26 6
0 10 -12 10 -26 0 -21 3 -24 14 -15 11 9 15 7 19 -10 9 -36 41 -20 45 22 2 29
-1 37 -17 42 -10 2 -24 0 -30 -6 -7 -7 -15 -7 -23 0 -7 5 -21 8 -30 5z m78
-39 c-10 -10 -19 5 -10 18 6 11 8 11 12 0 2 -7 1 -15 -2 -18z" />
        <path d="M1240 568 c0 -34 14 -29 23 7 4 15 5 13 6 -7 1 -38 21 -36 21 2 0 25
-4 30 -25 30 -21 0 -25 -5 -25 -32z" />
    </g>
</svg>